<svg xmlns="http://www.w3.org/2000/svg" width="900" height="620" viewBox="0 0 900 620">
  <rect width="900" height="620" fill="#f8fafc"/>
  <rect x="56" y="48" width="788" height="524" rx="32" fill="#ffffff" stroke="#e5e7eb" stroke-width="4"/>
  <circle cx="450" cy="318" r="172" fill="#fff7ed"/>
  <ellipse cx="450" cy="380" rx="210" ry="58" fill="#e5e7eb"/>
  <ellipse cx="450" cy="342" rx="202" ry="78" fill="#ffffff" stroke="#111827" stroke-width="8"/>
  <path d="M308 336c55 60 229 60 284 0" fill="#f59e0b"/>
  <path d="M342 314c34-34 86-52 128-28 33 19 72 13 98-8" fill="none" stroke="#2f7d5b" stroke-width="12" stroke-linecap="round"/>
  <circle cx="390" cy="326" r="15" fill="#ef4444"/>
  <circle cx="506" cy="316" r="13" fill="#2563eb"/>
  <circle cx="548" cy="350" r="11" fill="#ef4444"/>
  <path d="M340 196v82M385 188v90M430 196v82" stroke="#d1d5db" stroke-width="12" stroke-linecap="round"/>
  <text x="450" y="508" text-anchor="middle" font-family="Arial, sans-serif" font-size="34" fill="#6b7280">校园菜品图片</text>
</svg>
